<?xml version="1.0" encoding="UTF-8" standalone="no"?>
<!-- Created with Inkscape (http://www.inkscape.org/) -->

<svg
   width="1920"
   height="900"
   viewBox="0 0 507.99999 238.12501"
   version="1.1"
   id="svg5"
   inkscape:version="1.1.1 (3bf5ae0d25, 2021-09-20)"
   sodipodi:docname="WeatherApp.svg"
   xmlns:inkscape="http://www.inkscape.org/namespaces/inkscape"
   xmlns:sodipodi="http://sodipodi.sourceforge.net/DTD/sodipodi-0.dtd"
   xmlns:xlink="http://www.w3.org/1999/xlink"
   xmlns="http://www.w3.org/2000/svg"
   xmlns:svg="http://www.w3.org/2000/svg">
  <sodipodi:namedview
     id="namedview7"
     pagecolor="#ffffff"
     bordercolor="#999999"
     borderopacity="1"
     inkscape:pageshadow="0"
     inkscape:pageopacity="0"
     inkscape:pagecheckerboard="0"
     inkscape:document-units="mm"
     showgrid="false"
     inkscape:zoom="3.1594644"
     inkscape:cx="1476.9909"
     inkscape:cy="441.37228"
     inkscape:window-width="1920"
     inkscape:window-height="1001"
     inkscape:window-x="-9"
     inkscape:window-y="-9"
     inkscape:window-maximized="1"
     inkscape:current-layer="layer1"
     units="px"
     inkscape:snap-global="true"
     inkscape:snap-page="true"
     inkscape:snap-center="true"
     inkscape:snap-midpoints="true" />
  <defs
     id="defs2">
    <linearGradient
       inkscape:collect="always"
       id="linearGradient1166">
      <stop
         style="stop-color:#ffffff;stop-opacity:1;"
         offset="0"
         id="stop1162" />
      <stop
         style="stop-color:#ffffff;stop-opacity:0;"
         offset="1"
         id="stop1164" />
    </linearGradient>
    <linearGradient
       inkscape:collect="always"
       xlink:href="#linearGradient1166"
       id="linearGradient1168"
       x1="71.341049"
       y1="50.618423"
       x2="90.733406"
       y2="76.332428"
       gradientUnits="userSpaceOnUse"
       gradientTransform="translate(203.69727,59.518665)" />
    <linearGradient
       inkscape:collect="always"
       xlink:href="#linearGradient1166"
       id="linearGradient5136"
       gradientUnits="userSpaceOnUse"
       gradientTransform="translate(203.69727,59.518665)"
       x1="71.341049"
       y1="50.618423"
       x2="95.155846"
       y2="84.993027" />
    <linearGradient
       inkscape:collect="always"
       xlink:href="#linearGradient1166"
       id="linearGradient8939"
       gradientUnits="userSpaceOnUse"
       gradientTransform="translate(203.69727,59.518665)"
       x1="71.341049"
       y1="50.618423"
       x2="107.50182"
       y2="99.181679" />
  </defs>
  <g
     inkscape:label="Layer 1"
     inkscape:groupmode="layer"
     id="layer1">
    <rect
       style="fill:#101010;fill-opacity:0.510689;stroke-width:0.759642;stroke-linecap:round;paint-order:markers stroke fill;stop-color:#000000"
       id="rect1801"
       width="98.857933"
       height="85.212418"
       x="213.89284"
       y="83.957436"
       ry="0.1518213"
       inkscape:export-filename="C:\Users\camoc\Desktop\Code\Repos\WeatherAppProject\images\shine.png"
       inkscape:export-xdpi="179.85414"
       inkscape:export-ydpi="179.85414" />
    <path
       style="fill:#626262;fill-opacity:1;stroke:none;stroke-width:0.264583px;stroke-linecap:butt;stroke-linejoin:miter;stroke-opacity:1"
       d="m 213.89284,169.16986 h 98.85792 v -56.05347 c -2.20154,-1.56459 -4.16695,-2.93522 -6.41793,-4.28377 -2.72293,-1.13124 -4.77716,-3.31774 -6.83108,-5.22834 -3.04782,1.02975 -4.95479,-0.98144 -6.89516,-2.43298 -2.18143,-0.987 -4.29164,-2.200864 -5.95798,-4.001674 -1.22709,-3.22421 -5.144,-2.06254 -8.20936,-2.39801 -1.0854,-2.77138 -3.69483,-3.24993 -5.94507,-5.09577 -2.03809,-3.12026 -5.93964,-2.27157 -8.49295,-4.58618 -1.48964,-2.76276 -1.3492,2.28588 -2.60835,1.02204 -0.79767,-0.0416 -3.08242,1.17255 -3.50657,2.03543 -1.96558,2.61265 -5.1602,3.59432 -7.13406,6.28478 -2.47146,1.01135 -4.63295,0.87451 -6.62451,3.39717 -3.47999,-0.87426 -7.23387,1.65354 -8.50501,3.446924 -2.39579,1.58459 -5.76577,2.15008 -7.28335,4.34597 -2.2357,2.03714 -3.86545,4.12731 -6.62209,5.22424 -3.47639,0.93316 -3.70037,2.91728 -7.31488,3.28933 z"
       id="path17631"
       sodipodi:nodetypes="ccccccccccccccccccc"
       inkscape:export-filename="C:\Users\camoc\Desktop\Code\Repos\WeatherAppProject\path17631.png"
       inkscape:export-xdpi="179.85414"
       inkscape:export-ydpi="179.85414" />
    <path
       id="path9481"
       style="fill:url(#linearGradient1168);fill-opacity:1;stroke:none;stroke-width:0.264583"
       d="m 263.23267,86.016666 c 0.80512,1.0532 2.27256,3.05956 -0.35949,2.04595 -0.6932,-0.99602 -2.09904,-1.97042 -1.46339,0.16436 1.55001,1.85336 3.12478,3.24507 5.05027,4.7541 2.27338,1.4471 4.40194,2.97976 6.54358,4.58476 1.52179,0.844195 5.11514,1.459145 2.76729,-1.18205 -0.69526,-1.67449 -4.65199,-2.55292 -4.14156,-3.74277 1.94898,0.31058 5.1599,3.31768 6.21134,2.71817 -1.21968,-2.67691 -3.7479,-3.75739 -6.11487,-5.09582 -2.07094,-0.99836 -3.93615,-2.65927 -6.03013,-3.31253 -0.88553,-0.22897 -1.75404,-0.19041 -2.46304,-0.93417 z m 0.78289,8.06564 c -0.73129,2.35882 2.07293,2.7902 2.69906,4.674065 -1.49969,0.47105 -3.6643,-1.570485 -4.50412,-0.79792 2.21124,1.5135 4.68498,2.403859 5.90257,5.085489 0.93656,0.8506 2.72727,-2.8161 4.22773,-2.07886 0.0138,-0.3337 4.1786,0.30317 1.54014,-0.5797 -2.63305,-1.738199 -5.2714,-3.562314 -8.07753,-5.142564 -0.58555,-0.39975 -1.13969,-0.86374 -1.78785,-1.16051 z m 19.5895,1.35702 c 0.27527,2.42257 -4.10351,0.89253 -3.21633,1.53369 3.19122,0.42926 0.97696,3.146674 -1.26682,2.210825 -3.3202,-1.527645 -0.21421,3.362089 0.0778,4.328399 -1.48143,-0.32014 -4.25702,-2.61298 -2.46279,-0.0848 1.81044,1.8048 2.38396,4.15717 2.88716,6.53963 1.22303,3.16108 -3.07422,-0.14613 -4.58576,0.17002 -2.19496,-0.38644 2.41045,2.61576 -0.76482,1.27386 -2.71705,-0.1692 -5.30538,-1.73252 -7.39279,-3.24345 -1.07728,-0.98277 -2.46682,-3.73524 -3.68686,-3.4006 1.08969,2.69687 -2.13877,-0.64517 -3.5277,-0.74462 -0.85456,-0.6978 -2.75327,-3.04694 -1.95337,-0.34004 0.38488,2.04092 1.92188,3.50454 2.85611,5.07624 0.17599,0.59284 2.98727,3.18845 0.54053,1.46347 -1.40935,-0.55404 -4.81191,-3.43536 -3.73478,-0.0854 -0.23131,2.1209 1.95804,2.89786 3.05514,4.16207 2.09679,2.00092 4.53173,3.61665 6.85103,5.16777 2.3365,1.74997 5.40577,7.12137 6.24863,9.70298 0.62849,2.09536 4.05974,17.77844 6.64473,18.04957 42.07321,15.95597 21.51854,-3.69848 27.52286,-8.14233 3.13478,-0.67987 -11.95144,-15.1304 -13.63517,-16.88027 -1.44786,-2.02964 -2.60678,-4.0091 -4.36773,-5.73806 -1.09712,-1.08602 -4.08671,-3.61121 -3.19093,-4.62309 1.93758,1.70182 3.51361,3.87147 5.77353,5.25354 2.00443,1.85388 10.40206,13.50567 12.84016,14.78517 2.79124,2.05865 4.23445,-1.52525 6.09246,-3.15487 2.48115,-0.46931 -4.05438,-10.0704 -5.34197,-11.70326 -1.83989,-1.72141 -3.93279,-3.44135 -5.94536,-5.01054 -0.86711,-0.69645 -3.45552,-2.20096 -3.32892,-2.55004 2.06098,1.31237 4.37213,2.08034 5.9972,3.88335 3.71419,4.12087 36.4919,50.14376 4.78134,-1.16318 -0.98908,-1.6003 -2.56726,-3.16761 -4.13707,-4.33168 -1.0357,-0.54656 -2.57441,-1.02247 -2.22759,0.20368 -1.88166,-0.41208 -3.1909,-4.6789 -4.75178,-2.70454 -1.39986,0.47155 -2.91052,-1.19357 -3.89128,-1.91568 -1.78028,-1.62464 -2.62236,-4.480499 -5.48603,-3.490459 -1.69007,-0.8008 -2.6797,-2.577455 -3.27279,-4.497365 z m 13.97486,9.457314 0.13632,0.0625 z m -37.01117,3.86178 -0.0762,-0.0969 z m 15.36185,-6.751 c -0.0123,-0.27681 -0.1108,0.006 0,0 z m 3.94808,-5.289094 v -0.0853 z m -33.80207,0.42426 c -2.532,0.30162 1.94001,3.077414 -1.18851,2.293035 0.47612,1.440089 2.4438,1.959299 3.84908,0.994689 2.68372,0.42391 -0.1481,-2.272849 -1.31716,-2.525739 -0.45648,-0.237315 -0.9378,-0.437805 -1.34341,-0.761985 z m 3.26491,2.050025 -0.0469,-0.10807 z m -10.31358,1.771989 c 0.44673,2.50401 1.25462,5.40149 4.33096,5.60527 1.62172,0.95747 5.23447,-0.25609 2.20814,-1.69858 -1.17861,-1.09151 -2.39128,-2.81941 -4.41622,-2.80299 -0.78205,-0.19613 -1.47361,-0.64251 -2.12288,-1.1037 z m 1.7601,7.20729 c -1.50212,1.4181 4.13392,5.15776 3.42051,1.20041 -1.09112,-0.55519 -2.33157,-0.70222 -3.42051,-1.20041 z m 34.9188,3.65456 c 0.038,0.021 -0.0341,-10e-4 0,0 z"
       inkscape:export-filename="C:\Users\camoc\Desktop\Code\Repos\WeatherAppProject\path9481.png"
       inkscape:export-xdpi="179.85414"
       inkscape:export-ydpi="179.85414"
       sodipodi:nodetypes="ssssccsscssscssccsssccsssscssssssssssccssssssssssscssssssssssssssssscssscssssssssscsss" />
    <path
       id="path4887"
       style="opacity:1;fill:url(#linearGradient5136);fill-opacity:1;stroke:none;stroke-width:0.264583"
       d="m 263.23267,86.016666 c 0.80512,1.0532 2.27256,3.05956 -0.35949,2.04595 -0.6932,-0.99602 -2.09904,-1.97042 -1.46339,0.16436 1.55001,1.85336 3.12478,3.24507 5.05027,4.7541 2.27338,1.4471 4.40194,2.97976 6.54358,4.58476 1.52179,0.844195 5.11514,1.459145 2.76729,-1.18205 -0.69526,-1.67449 -4.65199,-2.55292 -4.14156,-3.74277 1.94898,0.31058 5.1599,3.31768 6.21134,2.71817 -1.21968,-2.67691 -3.7479,-3.75739 -6.11487,-5.09582 -2.07094,-0.99836 -3.93615,-2.65927 -6.03013,-3.31253 -0.88553,-0.22897 -1.75404,-0.19041 -2.46304,-0.93417 z m 0.78289,8.06564 c -0.73129,2.35882 2.07293,2.7902 2.69906,4.674065 -1.49969,0.47105 -3.6643,-1.570485 -4.50412,-0.79792 2.21124,1.5135 4.68498,2.403859 5.90257,5.085489 0.93656,0.8506 2.72727,-2.8161 4.22773,-2.07886 0.0138,-0.3337 4.1786,0.30317 1.54014,-0.5797 -2.63305,-1.738199 -5.2714,-3.562314 -8.07753,-5.142564 -0.58555,-0.39975 -1.13969,-0.86374 -1.78785,-1.16051 z m 19.5895,1.35702 c 0.27527,2.42257 -4.10351,0.89253 -3.21633,1.53369 3.19122,0.42926 0.97696,3.146674 -1.26682,2.210825 -3.3202,-1.527645 -0.21421,3.362089 0.0778,4.328399 -1.48143,-0.32014 -4.25702,-2.61298 -2.46279,-0.0848 1.81044,1.8048 2.38396,4.15717 2.88716,6.53963 1.22303,3.16108 -3.07422,-0.14613 -4.58576,0.17002 -2.19496,-0.38644 2.41045,2.61576 -0.76482,1.27386 -2.71705,-0.1692 -5.30538,-1.73252 -7.39279,-3.24345 -1.07728,-0.98277 -2.46682,-3.73524 -3.68686,-3.4006 1.08969,2.69687 -2.13877,-0.64517 -3.5277,-0.74462 -0.85456,-0.6978 -2.75327,-3.04694 -1.95337,-0.34004 0.38488,2.04092 1.92188,3.50454 2.85611,5.07624 0.17599,0.59284 2.98727,3.18845 0.54053,1.46347 -1.40935,-0.55404 -4.81191,-3.43536 -3.73478,-0.0854 -0.23131,2.1209 1.95804,2.89786 3.05514,4.16207 2.09679,2.00092 4.53173,3.61665 6.85103,5.16777 2.3365,1.74997 5.40577,7.12137 6.24863,9.70298 0.62849,2.09536 4.05974,17.77844 6.64473,18.04957 42.07321,15.95597 21.51854,-3.69848 27.52286,-8.14233 3.13478,-0.67987 -11.95144,-15.1304 -13.63517,-16.88027 -1.44786,-2.02964 -2.60678,-4.0091 -4.36773,-5.73806 -1.09712,-1.08602 -4.08671,-3.61121 -3.19093,-4.62309 1.93758,1.70182 3.51361,3.87147 5.77353,5.25354 2.00443,1.85388 10.40206,13.50567 12.84016,14.78517 2.79124,2.05865 4.23445,-1.52525 6.09246,-3.15487 2.48115,-0.46931 -4.05438,-10.0704 -5.34197,-11.70326 -1.83989,-1.72141 -3.93279,-3.44135 -5.94536,-5.01054 -0.86711,-0.69645 -3.45552,-2.20096 -3.32892,-2.55004 2.06098,1.31237 4.37213,2.08034 5.9972,3.88335 3.71419,4.12087 36.4919,50.14376 4.78134,-1.16318 -0.98908,-1.6003 -2.56726,-3.16761 -4.13707,-4.33168 -1.0357,-0.54656 -2.57441,-1.02247 -2.22759,0.20368 -1.88166,-0.41208 -3.1909,-4.6789 -4.75178,-2.70454 -1.39986,0.47155 -2.91052,-1.19357 -3.89128,-1.91568 -1.78028,-1.62464 -2.62236,-4.480499 -5.48603,-3.490459 -1.69007,-0.8008 -2.6797,-2.577455 -3.27279,-4.497365 z m 13.97486,9.457314 0.13632,0.0625 z m -37.01117,3.86178 -0.0762,-0.0969 z m 15.36185,-6.751 c -0.0123,-0.27681 -0.1108,0.006 0,0 z m 3.94808,-5.289094 v -0.0853 z m -33.80207,0.42426 c -2.532,0.30162 1.94001,3.077414 -1.18851,2.293035 0.47612,1.440089 2.4438,1.959299 3.84908,0.994689 2.68372,0.42391 -0.1481,-2.272849 -1.31716,-2.525739 -0.45648,-0.237315 -0.9378,-0.437805 -1.34341,-0.761985 z m 3.26491,2.050025 -0.0469,-0.10807 z m -10.31358,1.771989 c 0.44673,2.50401 1.25462,5.40149 4.33096,5.60527 1.62172,0.95747 5.23447,-0.25609 2.20814,-1.69858 -1.17861,-1.09151 -2.39128,-2.81941 -4.41622,-2.80299 -0.78205,-0.19613 -1.47361,-0.64251 -2.12288,-1.1037 z m 1.7601,7.20729 c -1.50212,1.4181 4.13392,5.15776 3.42051,1.20041 -1.09112,-0.55519 -2.33157,-0.70222 -3.42051,-1.20041 z m 34.9188,3.65456 c 0.038,0.021 -0.0341,-10e-4 0,0 z"
       inkscape:export-filename="C:\Users\camoc\Desktop\Code\Repos\WeatherAppProject\path9481.png"
       inkscape:export-xdpi="179.85414"
       inkscape:export-ydpi="179.85414"
       sodipodi:nodetypes="ssssccsscssscssccsssccsssscssssssssssccssssssssssscssssssssssssssssscssscssssssssscsss" />
    <path
       id="path8403"
       style="opacity:0.0746888;fill:url(#linearGradient8939);fill-opacity:1;stroke:none;stroke-width:0.264583"
       d="m 263.23267,86.016666 c 0.80512,1.0532 2.27256,3.05956 -0.35949,2.04595 -0.6932,-0.99602 -2.09904,-1.97042 -1.46339,0.16436 1.55001,1.85336 3.12478,3.24507 5.05027,4.7541 2.27338,1.4471 4.40194,2.97976 6.54358,4.58476 1.52179,0.844195 5.11514,1.459145 2.76729,-1.18205 -0.69526,-1.67449 -4.65199,-2.55292 -4.14156,-3.74277 1.94898,0.31058 5.1599,3.31768 6.21134,2.71817 -1.21968,-2.67691 -3.7479,-3.75739 -6.11487,-5.09582 -2.07094,-0.99836 -3.93615,-2.65927 -6.03013,-3.31253 -0.88553,-0.22897 -1.75404,-0.19041 -2.46304,-0.93417 z m 0.78289,8.06564 c -0.73129,2.35882 2.07293,2.7902 2.69906,4.674065 -1.49969,0.47105 -3.6643,-1.570485 -4.50412,-0.79792 2.21124,1.5135 4.68498,2.403859 5.90257,5.085489 0.93656,0.8506 2.72727,-2.8161 4.22773,-2.07886 0.0138,-0.3337 4.1786,0.30317 1.54014,-0.5797 -2.63305,-1.738199 -5.2714,-3.562314 -8.07753,-5.142564 -0.58555,-0.39975 -1.13969,-0.86374 -1.78785,-1.16051 z m 19.5895,1.35702 c 0.27527,2.42257 -4.10351,0.89253 -3.21633,1.53369 3.19122,0.42926 0.97696,3.146674 -1.26682,2.210825 -3.3202,-1.527645 -0.21421,3.362089 0.0778,4.328399 -1.48143,-0.32014 -4.25702,-2.61298 -2.46279,-0.0848 1.81044,1.8048 2.38396,4.15717 2.88716,6.53963 1.22303,3.16108 -3.07422,-0.14613 -4.58576,0.17002 -2.19496,-0.38644 2.41045,2.61576 -0.76482,1.27386 -2.71705,-0.1692 -5.30538,-1.73252 -7.39279,-3.24345 -1.07728,-0.98277 -2.46682,-3.73524 -3.68686,-3.4006 1.08969,2.69687 -2.13877,-0.64517 -3.5277,-0.74462 -0.85456,-0.6978 -2.75327,-3.04694 -1.95337,-0.34004 0.38488,2.04092 1.92188,3.50454 2.85611,5.07624 0.17599,0.59284 2.98727,3.18845 0.54053,1.46347 -1.40935,-0.55404 -4.81191,-3.43536 -3.73478,-0.0854 -0.23131,2.1209 1.95804,2.89786 3.05514,4.16207 2.09679,2.00092 4.53173,3.61665 6.85103,5.16777 2.3365,1.74997 5.40577,7.12137 6.24863,9.70298 0.62849,2.09536 4.05974,17.77844 6.64473,18.04957 42.07321,15.95597 21.51854,-3.69848 27.52286,-8.14233 3.13478,-0.67987 -11.95144,-15.1304 -13.63517,-16.88027 -1.44786,-2.02964 -2.60678,-4.0091 -4.36773,-5.73806 -1.09712,-1.08602 -4.08671,-3.61121 -3.19093,-4.62309 1.93758,1.70182 3.51361,3.87147 5.77353,5.25354 2.00443,1.85388 10.40206,13.50567 12.84016,14.78517 2.79124,2.05865 4.23445,-1.52525 6.09246,-3.15487 2.48115,-0.46931 -4.05438,-10.0704 -5.34197,-11.70326 -1.83989,-1.72141 -3.93279,-3.44135 -5.94536,-5.01054 -0.86711,-0.69645 -3.45552,-2.20096 -3.32892,-2.55004 2.06098,1.31237 4.37213,2.08034 5.9972,3.88335 3.71419,4.12087 36.4919,50.14376 4.78134,-1.16318 -0.98908,-1.6003 -2.56726,-3.16761 -4.13707,-4.33168 -1.0357,-0.54656 -2.57441,-1.02247 -2.22759,0.20368 -1.88166,-0.41208 -3.1909,-4.6789 -4.75178,-2.70454 -1.39986,0.47155 -2.91052,-1.19357 -3.89128,-1.91568 -1.78028,-1.62464 -2.62236,-4.480499 -5.48603,-3.490459 -1.69007,-0.8008 -2.6797,-2.577455 -3.27279,-4.497365 z m 13.97486,9.457314 0.13632,0.0625 z m -37.01117,3.86178 -0.0762,-0.0969 z m 15.36185,-6.751 c -0.0123,-0.27681 -0.1108,0.006 0,0 z m 3.94808,-5.289094 v -0.0853 z m -33.80207,0.42426 c -2.532,0.30162 1.94001,3.077414 -1.18851,2.293035 0.47612,1.440089 2.4438,1.959299 3.84908,0.994689 2.68372,0.42391 -0.1481,-2.272849 -1.31716,-2.525739 -0.45648,-0.237315 -0.9378,-0.437805 -1.34341,-0.761985 z m 3.26491,2.050025 -0.0469,-0.10807 z m -10.31358,1.771989 c 0.44673,2.50401 1.25462,5.40149 4.33096,5.60527 1.62172,0.95747 5.23447,-0.25609 2.20814,-1.69858 -1.17861,-1.09151 -2.39128,-2.81941 -4.41622,-2.80299 -0.78205,-0.19613 -1.47361,-0.64251 -2.12288,-1.1037 z m 1.7601,7.20729 c -1.50212,1.4181 4.13392,5.15776 3.42051,1.20041 -1.09112,-0.55519 -2.33157,-0.70222 -3.42051,-1.20041 z m 34.9188,3.65456 c 0.038,0.021 -0.0341,-10e-4 0,0 z"
       inkscape:export-filename="C:\Users\camoc\Desktop\Code\Repos\WeatherAppProject\path9481.png"
       inkscape:export-xdpi="179.85414"
       inkscape:export-ydpi="179.85414"
       sodipodi:nodetypes="ssssccsscssscssccsssccsssscssssssssssccssssssssssscssssssssssssssssscssscssssssssscsss" />
    <rect
       style="opacity:1;fill:#000000;fill-opacity:0.598575;stroke-width:0.352824;stroke-linecap:round;paint-order:markers stroke fill;stop-color:#000000"
       id="rect9588"
       width="43.465382"
       height="43.465382"
       x="361.03528"
       y="101.99487"
       ry="0.059695952"
       inkscape:export-filename="C:\Users\camoc\Desktop\Code\Repos\WeatherAppProject\images\moon.png"
       inkscape:export-xdpi="179.85414"
       inkscape:export-ydpi="179.85414" />
    <circle
       style="fill:#ffffff;fill-opacity:1;stroke-width:0.521999;stroke-linecap:round;paint-order:markers stroke fill;stop-color:#000000"
       id="path1034"
       cx="17.038197"
       cy="17.038197"
       r="17.038197"
       inkscape:label="Sun" />
    <path
       id="circle1358"
       style="fill:#ffffff;fill-opacity:1;stroke-width:0.521999;stroke-linecap:round;paint-order:markers stroke fill;stop-color:#000000"
       d="M 20.665759,0.39195461 A 17.038196,17.038196 0 0 1 29.889478,15.530565 17.038196,17.038196 0 0 1 12.851237,32.568805 17.038196,17.038196 0 0 1 9.2442257,32.177095 17.038196,17.038196 0 0 0 17.038057,34.076205 17.038196,17.038196 0 0 0 34.076297,17.037965 17.038196,17.038196 0 0 0 20.665759,0.39195461 Z"
       inkscape:label="Moon" />
  </g>
</svg>
